HIERARCHY
ROOT Hips
{
	OFFSET 0.000000 0.000000 0.000000
	CHANNELS 6 Xposition Yposition Zposition Zrotation Yrotation Xrotation 
	JOINT LHipJoint
	{
		OFFSET 0.000000 0.000000 0.000000
		CHANNELS 3 Zrotation Yrotation Xrotation
		JOINT LeftUpLeg
		{
			OFFSET 1.363060 -1.794630 0.839290
			CHANNELS 3 Zrotation Yrotation Xrotation
			JOINT LeftLeg
			{
				OFFSET 2.448110 -6.726130 0.000000
				CHANNELS 3 Zrotation Yrotation Xrotation
				JOINT LeftFoot
				{
					OFFSET 2.562200 -7.039590 0.000000
					CHANNELS 3 Zrotation Yrotation Xrotation
					JOINT LeftToeBase
					{
						OFFSET 0.157640 -0.433110 2.322550
						CHANNELS 3 Zrotation Yrotation Xrotation
						End Site
						{
							OFFSET 0.000000 0.000000 0.000000
						}
					}
				}
			}
		}
	}
	JOINT RHipJoint
	{
		OFFSET 0.000000 0.000000 0.000000
		CHANNELS 3 Zrotation Yrotation Xrotation
		JOINT RightUpLeg
		{
			OFFSET -1.305520 -1.794630 0.839290
			CHANNELS 3 Zrotation Yrotation Xrotation
			JOINT RightLeg
			{
				OFFSET -2.542530 -6.985550 0.000000
				CHANNELS 3 Zrotation Yrotation Xrotation
				JOINT RightFoot
				{
					OFFSET -2.568260 -7.056230 0.000000
					CHANNELS 3 Zrotation Yrotation Xrotation
					JOINT RightToeBase
					{
						OFFSET -0.164730 -0.452590 2.363150
						CHANNELS 3 Zrotation Yrotation Xrotation
						End Site
						{
							OFFSET 0.000000 0.000000 0.000000
						}
					}
				}
			}
		}
	}
	JOINT LowerBack
	{
		OFFSET 0.000000 0.000000 0.000000
		CHANNELS 3 Zrotation Yrotation Xrotation
		JOINT Spine
		{
			OFFSET 0.028270 2.035590 -0.193380
			CHANNELS 3 Zrotation Yrotation Xrotation
			JOINT Spine1
			{
				OFFSET 0.056720 2.048850 -0.042750
				CHANNELS 3 Zrotation Yrotation Xrotation
				JOINT Neck
				{
					OFFSET 0.000000 0.000000 0.000000
					CHANNELS 3 Zrotation Yrotation Xrotation
					JOINT Neck1
					{
						OFFSET -0.054170 1.746240 0.172020
						CHANNELS 3 Zrotation Yrotation Xrotation
						JOINT Head
						{
							OFFSET 0.104070 1.761360 -0.123970
							CHANNELS 3 Zrotation Yrotation Xrotation
							End Site
							{
								OFFSET 0.000000 0.000000 0.000000
							}
						}
					}
				}
				JOINT LeftShoulder
				{
					OFFSET 0.000000 0.000000 0.000000
					CHANNELS 3 Zrotation Yrotation Xrotation
					JOINT LeftArm
					{
						OFFSET 3.362410 1.200890 -0.311210
						CHANNELS 3 Zrotation Yrotation Xrotation
						JOINT LeftForeArm
						{
							OFFSET 4.983000 -0.000000 -0.000000
							CHANNELS 3 Zrotation Yrotation Xrotation
							JOINT LeftHand
							{
								OFFSET 3.483560 -0.000000 -0.000000
								CHANNELS 3 Zrotation Yrotation Xrotation
								JOINT LeftFingerBase
								{
									OFFSET 0.000000 0.000000 0.000000
									CHANNELS 3 Zrotation Yrotation Xrotation
									JOINT LeftHandIndex1
									{
										OFFSET 0.715260 -0.000000 -0.000000
										CHANNELS 3 Zrotation Yrotation Xrotation
										End Site
										{
											OFFSET 0.000000 0.000000 0.000000
										}
									}
								}
								JOINT LThumb
								{
									OFFSET 0.000000 0.000000 0.000000
									CHANNELS 3 Zrotation Yrotation Xrotation
									End Site
									{
										OFFSET 0.000000 0.000000 0.000000
									}
								}
							}
						}
					}
				}
				JOINT RightShoulder
				{
					OFFSET 0.000000 0.000000 0.000000
					CHANNELS 3 Zrotation Yrotation Xrotation
					JOINT RightArm
					{
						OFFSET -3.136600 1.374050 -0.404650
						CHANNELS 3 Zrotation Yrotation Xrotation
						JOINT RightForeArm
						{
							OFFSET -5.241900 -0.000000 -0.000000
							CHANNELS 3 Zrotation Yrotation Xrotation
							JOINT RightHand
							{
								OFFSET -3.444170 -0.000000 -0.000000
								CHANNELS 3 Zrotation Yrotation Xrotation
								JOINT RightFingerBase
								{
									OFFSET 0.000000 0.000000 0.000000
									CHANNELS 3 Zrotation Yrotation Xrotation
									JOINT RightHandIndex1
									{
										OFFSET -0.622530 -0.000000 -0.000000
										CHANNELS 3 Zrotation Yrotation Xrotation
										End Site
										{
											OFFSET 0.000000 0.000000 0.000000
										}
									}
								}
								JOINT RThumb
								{
									OFFSET 0.000000 0.000000 0.000000
									CHANNELS 3 Zrotation Yrotation Xrotation
									End Site
									{
										OFFSET 0.000000 0.000000 0.000000
									}
								}
							}
						}
					}
				}
			}
		}
	}
}
MOTION
Frames: 10
Frame Time: 0.008333
-0.013959 18.385682 8.578600 -7.306040 -1.593565 14.185932 6.817942 4.430174 -2.401702 -23.892734 -46.987534 22.085281 -4.052506 -2.426830 -3.009724 -11.479209 45.340028 -43.621023 1.501900 7.740900 21.929700 -0.548625 -4.341559 -0.866698 19.682393 28.713814 0.128879 3.545709 -0.697975 2.284429 8.383278 -26.748588 -3.675596 -0.000100 -0.068700 0.188900 -5.591058 1.639715 9.261659 21.474915 7.231507 -31.304798 -9.182129 -1.611688 -10.226353 -21.842896 -12.883695 -11.494074 16.027242 -19.730598 35.200294 2.883700 -8.050100 11.323900 -9.583290 -6.189100 2.211790 -90.176209 11.719111 -10.040959 12.325510 -13.839717 -2.121934 0.162966 1.514923 33.043218 16.333929 -8.667604 -3.058600 -7.125000 0.000000 0.000000 -7.087200 19.524500 4.344200 11.315203 7.887331 3.140571 78.668968 -10.289316 -23.695811 -11.686918 15.645851 -2.102173 1.078011 1.237178 53.751875 11.454284 -28.909185 -6.061600 7.125000 0.000000 0.000000 44.882500 -54.634700 -12.501600 
-0.012175 18.385053 8.578285 -7.365098 -1.558973 14.197165 6.835135 4.426890 -2.399534 -23.816655 -46.952201 22.043233 -4.051477 -2.435948 -3.025870 -11.514346 45.357131 -43.553729 1.481200 7.689700 21.775400 -0.537286 -4.333383 -0.851048 19.698125 28.498404 0.006592 3.542741 -0.697625 2.276693 8.344288 -26.666897 -3.491713 -0.000200 0.084800 -0.233000 -5.576947 1.633160 9.194422 21.632012 7.252684 -31.211950 -9.248171 -1.627702 -10.214597 -21.918163 -12.882845 -11.503765 16.129632 -19.750042 35.222141 2.915300 -8.046600 11.347500 -9.596093 -6.192006 2.202782 -90.213002 11.687694 -10.157705 12.309131 -13.819968 -2.121045 0.150313 1.539926 33.075180 16.563212 -8.709738 -3.124200 -7.125000 0.000000 0.000000 -6.906200 19.450400 4.243100 11.298393 7.899080 3.138708 78.671425 -10.234910 -23.818982 -11.682804 15.634771 -2.099575 1.078522 1.233693 53.912073 11.487334 -28.855090 -6.069400 7.125000 0.000000 0.000000 44.860800 -54.585400 -12.434600 
-0.009761 18.384528 8.578810 -7.394082 -1.523112 14.180216 6.849942 4.424347 -2.397704 -23.802732 -46.903381 22.023058 -4.048840 -2.435467 -3.016203 -11.579154 45.389983 -43.423624 1.462000 7.641700 21.631000 -0.531223 -4.334340 -0.833632 19.711350 28.368926 -0.027524 3.542348 -0.690833 2.260355 8.321659 -26.615828 -3.409719 -0.000300 0.115600 -0.317700 -5.548900 1.628341 9.166836 21.741338 7.260362 -31.121360 -9.305015 -1.641296 -10.230165 -21.992896 -12.897813 -11.552267 16.184921 -19.765801 35.241148 2.932800 -8.048300 11.369300 -9.609399 -6.188961 2.195508 -90.246344 11.637408 -10.388943 12.277034 -13.784110 -2.116789 0.138605 1.573274 33.195883 16.846868 -8.780467 -3.213000 -7.125000 0.000000 0.000000 -6.682300 19.335700 4.120800 11.292261 7.907338 3.139027 78.633044 -10.184828 -23.927706 -11.651194 15.591226 -2.090385 1.084146 1.231580 54.075636 11.552330 -28.906621 -6.112900 7.125000 0.000000 0.000000 44.965800 -54.613100 -12.507100 
-0.007347 18.383793 8.578390 -7.434080 -1.487692 14.153387 6.855173 4.422949 -2.395682 -23.825819 -46.927951 22.090418 -4.050424 -2.433361 -3.002596 -11.554332 45.370020 -43.462696 1.470800 7.663900 21.697600 -0.527847 -4.339535 -0.820092 19.755573 28.283531 -0.025351 3.542696 -0.685234 2.250733 8.301355 -26.567005 -3.381065 -0.000400 0.120900 -0.332200 -5.485479 1.631698 9.176541 21.797518 7.270523 -31.071994 -9.364355 -1.648220 -10.252301 -22.049470 -12.901397 -11.541770 16.246554 -19.779679 35.206943 2.952700 -8.051000 11.365500 -9.613483 -6.186175 2.191534 -90.264889 11.606306 -10.618288 12.254658 -13.763545 -2.115137 0.137387 1.597985 33.342167 17.029662 -8.870629 -3.286300 -7.125000 0.000000 0.000000 -6.539500 19.209700 4.050000 11.291508 7.912458 3.138632 78.615328 -10.141836 -24.044101 -11.612933 15.537125 -2.077907 1.089766 1.224876 54.171695 11.496338 -28.949796 -6.088200 7.125000 0.000000 0.000000 44.951700 -54.657900 -12.555300 
-0.008501 18.385263 8.584582 -7.450470 -1.389251 14.275965 6.802510 4.400912 -2.439698 -23.716279 -47.026159 22.053343 -4.044831 -2.428254 -3.043117 -11.620844 45.460633 -43.439011 1.464500 7.648100 21.650100 -0.586150 -4.340409 -0.869648 19.852908 28.260572 -0.017754 3.550426 -0.656413 2.179267 8.302024 -26.576059 -3.489977 -0.001200 -0.222800 0.612100 -5.156798 1.648013 9.363400 21.203842 7.244977 -31.708988 -9.284834 -1.625219 -10.269111 -21.970743 -12.876987 -11.300242 16.173235 -19.813609 35.285140 2.943900 -8.078800 11.389000 -9.515829 -6.178242 2.243673 -90.200703 11.887291 -10.534944 12.166316 -13.670141 -2.107823 0.198697 1.662383 33.320348 17.088165 -9.682581 -3.578600 -7.125000 0.000000 0.000000 -6.511500 18.270600 4.168900 11.330386 7.887001 3.152843 78.760034 -10.389404 -24.176394 -11.570047 15.478093 -2.068783 1.097650 1.232076 53.937091 11.535533 -29.155581 -6.145100 7.125000 0.000000 0.000000 45.181000 -54.814100 -12.829500 
-0.012909 18.388516 8.597806 -7.436660 -1.238743 14.514072 6.713854 4.361811 -2.514809 -23.477469 -47.103015 21.847502 -4.030485 -2.408623 -3.084817 -11.764390 45.574285 -43.220441 1.428100 7.556400 21.374700 -0.686644 -4.340406 -0.959556 19.970023 28.273418 0.002211 3.564292 -0.597068 2.023151 8.336427 -26.687769 -3.644858 -0.017000 -0.840900 2.311100 -4.672887 1.677913 9.666699 20.172079 7.186790 -32.830329 -9.083360 -1.583423 -10.332676 -21.801285 -12.837783 -10.894649 15.919222 -19.847271 35.485447 2.898700 -8.128400 11.448100 -9.328998 -6.166324 2.316729 -90.149902 12.478646 -9.402342 12.181015 -13.678321 -2.108433 0.184045 1.628228 32.736854 16.852805 -9.587756 -3.485100 -7.125000 0.000000 0.000000 -6.691800 18.418500 4.263800 11.377233 7.837006 3.178043 78.979553 -10.910296 -24.268314 -11.497340 15.389735 -2.056042 1.105733 1.253345 53.387812 11.684832 -29.471659 -6.283700 7.125000 0.000000 0.000000 45.622300 -55.036900 -13.269100 
-0.013854 18.389776 8.603369 -7.417249 -1.164729 14.635937 6.664046 4.341625 -2.550212 -23.439332 -47.224401 21.827623 -4.028426 -2.389849 -3.072897 -11.713165 45.538812 -43.303007 1.430800 7.563400 21.395700 -0.735729 -4.336083 -0.998214 19.983206 28.158975 -0.061854 3.568555 -0.569019 1.941184 8.331370 -26.694248 -3.586407 -0.026500 -1.051600 2.890800 -4.448440 1.706526 9.834281 19.656504 7.163127 -33.381570 -8.971814 -1.555860 -10.403992 -21.697494 -12.821653 -10.708618 15.746063 -19.855071 35.600008 2.864500 -8.153800 11.482900 -9.234240 -6.156665 2.353978 -90.132295 12.782607 -8.900252 12.169050 -13.663098 -2.109820 0.178585 1.641376 32.449575 16.917657 -9.734833 -3.549100 -7.125000 0.000000 0.000000 -6.643600 18.248900 4.257800 11.393993 7.808326 3.186670 79.110700 -11.195166 -24.393966 -11.457021 15.340697 -2.045666 1.106864 1.254814 53.161922 11.604317 -29.527159 -6.248200 7.125000 0.000000 0.000000 45.602300 -55.097900 -13.334900 
-0.011440 18.389356 8.602319 -7.411484 -1.157739 14.657466 6.656380 4.335333 -2.556402 -23.501056 -47.279045 21.885151 -4.031173 -2.382016 -3.049784 -11.672168 45.532352 -43.416890 1.429700 7.560600 21.387100 -0.743847 -4.327955 -0.996833 19.937131 27.969730 -0.182586 3.564243 -0.573615 1.944789 8.279502 -26.568473 -3.390034 -0.025100 -1.021900 2.809200 -4.407350 1.723947 9.877151 19.583985 7.173454 -33.449327 -8.961481 -1.545681 -10.440568 -21.657711 -12.822889 -10.731220 15.690698 -19.841968 35.623213 2.849800 -8.152200 11.492700 -9.222216 -6.152993 2.359895 -90.140667 12.810328 -8.907122 12.174278 -13.669257 -2.110163 0.167173 1.638413 32.407565 16.956373 -9.656186 -3.531800 -7.125000 0.000000 0.000000 -6.611100 18.335500 4.224000 11.393014 7.806571 3.187766 79.194528 -11.211639 -24.601088 -11.466341 15.346215 -2.045661 1.108183 1.245117 53.307741 11.495870 -29.498507 -6.181900 7.125000 0.000000 0.000000 45.472100 -55.095200 -13.280100 
-0.009131 18.389041 8.601480 -7.424911 -1.137180 14.665450 6.658753 4.327648 -2.563173 -23.489062 -47.235615 21.864051 -4.028235 -2.382423 -3.051695 -11.763768 45.612801 -43.298911 1.403400 7.493500 21.186000 -0.752820 -4.323277 -0.992471 19.928100 27.798910 -0.271167 3.560979 -0.574555 1.944891 8.227714 -26.442150 -3.230130 -0.027100 -1.062900 2.921800 -4.341530 1.727721 9.913643 19.541210 7.172459 -33.485538 -8.971688 -1.546254 -10.476811 -21.598704 -12.819511 -10.771698 15.602224 -19.811663 35.665148 2.824600 -8.144100 11.501100 -9.216926 -6.148463 2.363479 -90.139794 12.830725 -8.926104 12.182689 -13.680719 -2.109706 0.159361 1.626162 32.349376 16.913195 -9.551193 -3.485200 -7.125000 0.000000 0.000000 -6.642200 18.462400 4.225300 11.390270 7.806666 3.191014 79.251824 -11.188203 -24.781280 -11.468757 15.343916 -2.046529 1.112374 1.244553 53.470145 11.577951 -29.553842 -6.236800 7.125000 0.000000 0.000000 45.598700 -55.121000 -13.361300 
-0.004198 18.387781 8.598646 -7.520156 -1.071144 14.640987 6.663770 4.316393 -2.568273 -23.424657 -47.229715 21.903071 -4.026898 -2.389942 -3.066725 -11.795683 45.625405 -43.232842 1.408600 7.506900 21.226100 -0.759698 -4.323521 -0.975383 20.017908 27.515244 -0.371169 3.557381 -0.578986 1.963705 8.138424 -26.218312 -3.074218 -0.027100 -1.063100 2.922500 -4.163830 1.734667 9.993216 19.542631 7.183589 -33.482044 -9.059126 -1.555524 -10.551382 -21.509807 -12.808881 -10.794198 15.504177 -19.775334 35.677864 2.793500 -8.133500 11.490300 -9.215536 -6.138204 2.364886 -90.114369 12.830314 -9.041419 12.174668 -13.681158 -2.107156 0.167639 1.618806 32.427314 16.829302 -9.545999 -3.463200 -7.125000 0.000000 0.000000 -6.707600 18.477300 4.265300 11.382216 7.807650 3.192646 79.284547 -11.160766 -24.897892 -11.453255 15.320356 -2.041192 1.114484 1.244718 53.593360 11.647033 -29.564234 -6.277100 7.125000 0.000000 0.000000 45.671600 -55.115100 -13.383100 
